<?xml version="1.0" encoding="UTF-8"?> <svg xmlns="http://www.w3.org/2000/svg" width="168" height="75" viewBox="0 0 168 75" fill="none"><path fill-rule="evenodd" clip-rule="evenodd" d="M31.5752 18.2731L47.3627 27.4095L63.1498 18.2731L31.5752 0V18.2731Z" fill="#008DD2"></path><path fill-rule="evenodd" clip-rule="evenodd" d="M15.7877 45.6826L31.5748 54.8193V73.093L0.000244141 54.8193L15.7877 45.6826Z" fill="#0971B7"></path><path fill-rule="evenodd" clip-rule="evenodd" d="M47.3089 63.925L47.3083 45.6516L31.5217 36.5146V73.0614L47.3089 63.925Z" fill="#7EB02E"></path><path fill-rule="evenodd" clip-rule="evenodd" d="M47.3083 45.6522L63.0963 36.5153V18.2422L31.5217 36.5153L47.3083 45.6522Z" fill="#A9C321"></path><path fill-rule="evenodd" clip-rule="evenodd" d="M15.7877 45.6829L15.7874 27.4099L0.000244141 18.2734V54.8196L15.7877 45.6829Z" fill="#CFD0D0"></path><path fill-rule="evenodd" clip-rule="evenodd" d="M15.7872 27.4095L31.5746 18.2731L31.5749 0L0 18.2731L15.7872 27.4095Z" fill="#E3E3E3"></path><path d="M63.5766 68.2362C62.9168 68.107 62.257 68.0295 61.8334 68.0295C60.5384 68.0295 59.5528 68.7014 59.5528 70.6659C59.5528 72.6388 60.5384 73.1386 61.8742 73.1386C62.3793 73.1386 63.324 73.0696 64.163 72.949V66.2805L63.5766 66.3149V68.2362ZM153.785 61.2268L157.812 50.6868L161.841 61.2268H163.27L168 47.9867H166.267L162.543 58.668L158.516 47.9867H157.134L153.082 58.668L149.359 47.9867H147.65L152.356 61.2268H153.785ZM62.9431 61.2268L66.9707 50.6868L70.9993 61.2268H72.4272L77.1582 47.9867H75.4251L71.7018 58.668L67.6732 47.9867H66.2912L62.2397 58.668L58.5163 47.9867H56.8071L61.5141 61.2268H62.9431ZM86.4323 49.3257C89.4992 49.3257 91.2563 50.2876 91.4665 53.8092H80.9987C81.2559 50.0289 83.7385 49.3257 86.4323 49.3257ZM86.5723 61.5557C87.9303 61.5557 90.5069 61.3682 92.7083 61.0391L92.5912 59.4203C90.4838 59.8425 87.7201 59.96 86.7124 59.96C83.3402 59.96 81.3029 58.6219 80.9987 55.382H93.1535V54.5836C93.1535 49.2314 90.624 47.6356 86.4792 47.6356C82.6378 47.6356 79.2887 48.9967 79.2887 54.4893C79.2887 59.6309 82.2405 61.5557 86.5723 61.5557ZM103.738 49.2545C106.619 49.2545 108.75 50.5464 108.75 54.8183C108.75 59.0903 106.619 59.96 103.598 59.96C102.638 59.96 100.74 59.8887 98.7963 59.655V49.7951C100.74 49.419 102.732 49.2545 103.738 49.2545ZM98.7963 42.8701L97.1341 42.9635V61.0391C99.5697 61.3682 102.263 61.5557 103.738 61.5557C107.579 61.5557 110.413 60.1946 110.413 54.8183C110.413 49.4661 107.579 47.6356 103.903 47.6356C102.615 47.6356 100.694 47.8693 98.7963 48.2223V42.8701ZM116.056 61.2268V49.7951C118.001 49.419 119.991 49.2545 120.999 49.2545C123.879 49.2545 126.01 50.3578 126.01 53.8092V61.2268H127.673V53.8092C127.673 49.1843 124.839 47.6356 121.163 47.6356C119.523 47.6356 116.83 47.9867 114.394 48.5273V61.2268H116.056ZM138.235 59.96C135.729 59.96 133.364 59.5608 133.364 54.724C133.364 49.9586 135.729 49.2545 139.007 49.2545C141.467 49.2545 143.878 49.6537 143.878 54.4893C143.878 59.2548 141.537 59.96 138.235 59.96ZM138.282 61.5557C142.426 61.5557 145.541 60.4052 145.541 54.4191C145.541 48.5273 142.45 47.6356 138.913 47.6356C134.791 47.6356 131.677 48.8092 131.677 54.7721C131.677 60.6871 134.768 61.5557 138.282 61.5557ZM61.8742 68.6239C62.2082 68.6239 62.9005 68.6842 63.5766 68.8221V72.4407C62.9005 72.5268 62.2489 72.5527 61.915 72.5527C60.8642 72.5527 60.1393 72.2339 60.1393 70.6659C60.1393 69.0979 60.8642 68.6239 61.8742 68.6239ZM65.9591 68.1586V73.0179H66.5373V68.1586H65.9591ZM66.5373 67.2282V66.2805L65.9591 66.3149V67.2282H66.5373ZM72.3247 72.9835C72.3247 73.9054 71.6649 74.4137 70.8422 74.4137C70.2394 74.4137 69.4168 74.3706 68.6512 74.2155L68.6022 74.81C69.376 74.9392 70.2151 74.9995 70.8666 74.9995C72.0151 74.9995 72.9111 74.3361 72.9111 72.9749V68.219C72.0721 68.107 71.1273 68.0295 70.6223 68.0295C69.2865 68.0295 68.3009 68.5378 68.3009 70.5108C68.3009 72.4666 69.2865 73.1386 70.5815 73.1386C71.0051 73.1386 71.6649 73.061 72.3247 72.9404V72.9835ZM70.6223 72.5527C69.6123 72.5527 68.8873 72.0788 68.8873 70.5108C68.8873 68.9427 69.6123 68.6239 70.6631 68.6239C70.9969 68.6239 71.6486 68.6498 72.3247 68.7446V72.3545C71.6486 72.501 70.9563 72.5527 70.6223 72.5527ZM74.7073 68.1586V73.0179H75.2854V68.1586H74.7073ZM75.2854 67.2282V66.2805L74.7073 66.3149V67.2282H75.2854ZM78.0753 68.736H79.6555V68.1586H78.0753V66.875L77.4888 66.9094V68.1586H76.9106V68.736H77.4888V71.6222C77.4888 72.8543 78.0019 73.0782 78.8328 73.0782C79.0365 73.0782 79.3786 73.061 79.6555 72.9749L79.6148 72.3803C79.2889 72.4666 78.8899 72.4838 78.7432 72.4838C78.3686 72.4838 78.0753 72.3631 78.0753 71.6222V68.736ZM81.6226 68.8135C82.3394 68.6928 83.2598 68.6153 83.6915 68.6239C84.7911 68.6411 85.2961 69.0979 85.2961 70.0455V70.0799C84.4165 70.0111 83.5041 69.9766 83.1783 69.9766C82.0298 69.9766 81.2723 70.3385 81.2723 71.5619C81.2723 72.837 82.095 73.1386 83.3086 73.1386C84.4082 73.1386 84.9784 72.8973 85.3857 72.4494C85.5078 72.8198 85.7685 73.0868 86.2898 73.0868C86.3387 73.0868 86.3875 73.0868 86.4528 73.0782L86.4202 72.4838C86.4202 72.4838 86.4121 72.5096 86.3061 72.5096C85.9396 72.5096 85.8825 72.1736 85.8825 71.8031V70.0541C85.8825 68.6928 85.0517 68.0295 83.6996 68.0295C83.2924 68.0295 82.3231 68.0898 81.5736 68.219L81.6226 68.8135ZM83.3005 72.544C82.4535 72.544 81.8588 72.4063 81.8588 71.5705C81.8588 70.7864 82.3719 70.5624 83.1539 70.5624C83.439 70.5624 84.3919 70.5969 85.2961 70.6659V71.8031V71.8462C84.8807 72.3287 84.3594 72.544 83.3005 72.544ZM88.5175 73.0179V66.2805L87.9394 66.3149V73.0179H88.5175ZM94.309 68.8135C95.0258 68.6928 95.9463 68.6153 96.3779 68.6239C97.4775 68.6411 97.9825 69.0979 97.9825 70.0455V70.0799C97.1029 70.0111 96.1906 69.9766 95.8648 69.9766C94.7162 69.9766 93.9588 70.3385 93.9588 71.5619C93.9588 72.837 94.7815 73.1386 95.9951 73.1386C97.0947 73.1386 97.6649 72.8973 98.0721 72.4494C98.1944 72.8198 98.455 73.0868 98.9763 73.0868C99.0251 73.0868 99.074 73.0868 99.1392 73.0782L99.1067 72.4838C99.1067 72.4838 99.0985 72.5096 98.9925 72.5096C98.6261 72.5096 98.569 72.1736 98.569 71.8031V70.0541C98.569 68.6928 97.7381 68.0295 96.3861 68.0295C95.9788 68.0295 95.0095 68.0898 94.2601 68.219L94.309 68.8135ZM95.9869 72.544C95.1399 72.544 94.5452 72.4063 94.5452 71.5705C94.5452 70.7864 95.0583 70.5624 95.8404 70.5624C96.1255 70.5624 97.0784 70.5969 97.9825 70.6659V71.8031V71.8462C97.5671 72.3287 97.0458 72.544 95.9869 72.544ZM104.519 72.9835C104.519 73.9054 103.859 74.4137 103.037 74.4137C102.434 74.4137 101.611 74.3706 100.846 74.2155L100.797 74.81C101.571 74.9392 102.41 74.9995 103.061 74.9995C104.21 74.9995 105.106 74.3361 105.106 72.9749V68.219C104.267 68.107 103.322 68.0295 102.817 68.0295C101.481 68.0295 100.495 68.5378 100.495 70.5108C100.495 72.4666 101.481 73.1386 102.776 73.1386C103.2 73.1386 103.859 73.061 104.519 72.9404V72.9835ZM102.817 72.5527C101.807 72.5527 101.082 72.0788 101.082 70.5108C101.082 68.9427 101.807 68.6239 102.858 68.6239C103.192 68.6239 103.843 68.6498 104.519 68.7446V72.3545C103.843 72.501 103.151 72.5527 102.817 72.5527ZM109.402 73.1386C109.875 73.1386 110.771 73.0696 111.536 72.949L111.496 72.3545C110.763 72.5096 109.801 72.5527 109.451 72.5527C108.278 72.5527 107.57 72.0616 107.464 70.8727H111.691V70.5797C111.691 68.6153 110.811 68.0295 109.37 68.0295C108.034 68.0295 106.869 68.5291 106.869 70.5452C106.869 72.4321 107.895 73.1386 109.402 73.1386ZM109.353 68.6498C110.421 68.6498 111.031 69.003 111.105 70.2954H107.464C107.553 68.9083 108.417 68.6498 109.353 68.6498ZM113.446 68.219V73.0179H114.025V68.7446C114.701 68.6498 115.361 68.6239 115.695 68.6239C116.745 68.6239 117.486 68.9427 117.486 70.5108V73.0179H118.065V70.5108C118.065 68.5378 117.079 68.0295 115.743 68.0295C115.23 68.0295 114.294 68.107 113.446 68.219ZM122.272 72.5527C121.237 72.5527 120.415 71.9754 120.415 70.5797C120.415 68.96 121.237 68.6239 122.272 68.6239C122.76 68.6239 123.461 68.667 124.105 68.8221L124.145 68.219C123.486 68.107 122.785 68.0295 122.231 68.0295C120.903 68.0295 119.828 68.5378 119.828 70.5797C119.828 72.389 120.903 73.1386 122.231 73.1386C122.785 73.1386 123.486 73.0696 124.145 72.949L124.105 72.3545C123.461 72.5096 122.76 72.5527 122.272 72.5527ZM127.033 74.9134H127.644L130.812 68.1586H130.201L128.328 72.1563L126.316 68.1586H125.656L128.018 72.8112L127.033 74.9134Z" fill="#0971B7"></path></svg> 