<?xml version="1.0" encoding="UTF-8"?> <svg xmlns="http://www.w3.org/2000/svg" width="316" height="32" viewBox="0 0 316 32" fill="none"><path d="M268.136 23.9766H279.578V21.3981H272.037C273.077 17.1668 279.448 16.2412 279.448 11.5471C279.448 9.03479 277.757 7.18359 274.182 7.18359C271.972 7.18359 270.021 7.84473 268.721 8.50587L269.501 10.886C270.672 10.291 272.037 9.76204 273.727 9.76204C275.027 9.76204 276.262 10.3571 276.262 11.8777C276.262 15.3156 268.786 15.5801 268.136 23.9766ZM279.903 19.8775H287.249V23.9766H290.174V19.8775H292.644V17.3652H290.174V7.18359H288.029L279.903 17.8941V19.8775ZM283.218 17.4974L287.379 11.8116C287.379 12.2744 287.249 13.7289 287.249 15.0512V17.4313H285.298C284.713 17.4313 283.608 17.4974 283.218 17.4974Z" fill="#F4F4F4"></path><path d="M185.055 21.4635V16.2405H186.291C187.396 16.2405 188.306 16.3728 188.956 16.7694C189.606 17.1661 189.996 17.8273 189.996 18.8851C189.996 20.6702 188.956 21.4635 186.486 21.4635H185.055ZM182.065 23.9759H186.421C191.296 23.9759 193.051 21.7941 193.051 18.7529C193.051 16.7033 192.206 15.3149 190.711 14.5216C189.541 13.8604 188.046 13.6621 186.226 13.6621H185.055V9.69524H191.621L192.401 7.24902H182V23.9759H182.065ZM195.067 23.9759H197.927L201.633 18.5545C202.348 17.5628 202.868 16.5711 203.193 16.0422H203.258C203.193 16.7694 203.128 17.695 203.128 18.6206V23.9098H206.053V12.0092H203.193L199.487 17.4306C198.837 18.4223 198.252 19.414 197.927 19.9429H197.862C197.927 19.2157 197.992 18.2901 197.992 17.3645V12.0753H195.067V23.9759ZM211.059 23.9759H214.049V14.5216H217.56L218.34 12.0092H207.483V14.5216H211.059V23.9759ZM219.38 29.9923H222.305V23.9759C222.89 24.1742 223.475 24.2403 224.125 24.2403C227.831 24.2403 230.236 21.6619 230.236 17.9595C230.236 14.1249 228.026 11.6787 223.8 11.6787C222.175 11.6787 220.615 12.0092 219.315 12.4059V29.9923H219.38ZM222.305 21.3974V14.3893C222.76 14.2571 223.15 14.191 223.67 14.191C225.816 14.191 227.181 15.3811 227.181 17.9595C227.181 20.2735 226.076 21.728 223.865 21.728C223.28 21.728 222.825 21.5958 222.305 21.3974ZM231.992 23.9759H234.852L238.557 18.5545C239.272 17.5628 239.793 16.5711 240.118 16.0422H240.183C240.118 16.7694 240.053 17.695 240.053 18.6206V23.9098H242.978V12.0092H240.118L236.412 17.4306C235.762 18.4223 235.177 19.414 234.852 19.9429H234.787C234.852 19.2157 234.917 18.2901 234.917 17.3645V12.0753H231.992V23.9759ZM245.318 23.9759H248.309V19.0173H250.064C250.389 19.0173 250.714 19.3479 251.104 20.1413L252.599 23.9759H255.785L253.639 19.414C253.249 18.6206 252.859 18.1578 252.274 17.9595V17.8934C253.249 17.2984 253.379 15.5794 253.964 14.7199C254.159 14.4555 254.419 14.3232 254.809 14.3232C255.005 14.3232 255.265 14.3232 255.46 14.4555V11.877C255.135 11.7448 254.549 11.6787 254.224 11.6787C253.184 11.6787 252.534 12.0753 252.079 12.7365C251.104 14.191 251.104 16.7033 249.674 16.7033H248.309V12.0092H245.318V23.9759ZM262.415 24.2403C264.041 24.2403 265.536 23.7114 266.446 23.0503L265.601 21.0007C264.756 21.4635 263.976 21.7941 262.871 21.7941C260.855 21.7941 259.555 20.4718 259.555 18.0256C259.555 15.8438 260.855 14.1249 263.066 14.1249C264.236 14.1249 265.081 14.4555 265.926 15.0505V12.472C265.276 12.0753 264.236 11.6787 262.741 11.6787C259.23 11.6787 256.5 14.3232 256.5 18.0917C256.5 21.5297 258.58 24.2403 262.415 24.2403Z" fill="#F4F4F4"></path><path d="M302.331 19.8767C305.516 19.8767 308.116 17.2321 308.116 13.9925C308.116 10.753 305.516 8.1084 302.331 8.1084C299.145 8.1084 296.545 10.753 296.545 13.9925C296.61 17.2321 299.145 19.8767 302.331 19.8767Z" stroke="#F4F4F4" stroke-width="0.870794"></path><path d="M305.971 13.9935H302.786V10.7539H301.94V14.853H305.971V13.9935Z" fill="#F4F4F4"></path><path d="M32.0449 17.9077C32.0449 21.3923 29.2789 23.96 25.8843 23.96C22.4897 23.96 19.7236 21.3923 19.7236 17.9077C19.7236 14.3986 22.4897 11.8555 25.8843 11.8555C29.2789 11.8555 32.0449 14.3986 32.0449 17.9077ZM29.3481 17.9077C29.3481 15.7302 27.7449 14.2404 25.8843 14.2404C24.0236 14.2404 22.4205 15.7302 22.4205 17.9077C22.4205 20.0634 24.0236 21.5751 25.8843 21.5751C27.7449 21.5751 29.3481 20.0607 29.3481 17.9077Z" fill="#F4F4F4"></path><path d="M45.3352 17.9077C45.3352 21.3923 42.5691 23.96 39.1746 23.96C35.78 23.96 33.0139 21.3923 33.0139 17.9077C33.0139 14.4013 35.78 11.8555 39.1746 11.8555C42.5691 11.8555 45.3352 14.3986 45.3352 17.9077ZM42.6384 17.9077C42.6384 15.7302 41.0352 14.2404 39.1746 14.2404C37.3139 14.2404 35.7108 15.7302 35.7108 17.9077C35.7108 20.0634 37.3139 21.5751 39.1746 21.5751C41.0352 21.5751 42.6384 20.0607 42.6384 17.9077Z" fill="#F4F4F4"></path><path d="M58.0719 12.2211V23.0868C58.0719 27.5564 55.3972 29.3819 52.2352 29.3819C49.2587 29.3819 47.4673 27.42 46.7917 25.8155L49.1397 24.8523C49.5577 25.8373 50.5822 26.9998 52.2324 26.9998C54.2565 26.9998 55.5107 25.7691 55.5107 23.4525V22.582H55.4166C54.813 23.316 53.6501 23.9573 52.1826 23.9573C49.112 23.9573 46.2988 21.3213 46.2988 17.9296C46.2988 14.5132 49.112 11.8555 52.1826 11.8555C53.6473 11.8555 54.8102 12.4967 55.4166 13.2089H55.5107V12.2238H58.0719V12.2211ZM55.7018 17.9296C55.7018 15.7984 54.2592 14.2404 52.4235 14.2404C50.5628 14.2404 49.004 15.7984 49.004 17.9296C49.004 20.0388 50.5628 21.5751 52.4235 21.5751C54.2592 21.5751 55.7018 20.0388 55.7018 17.9296Z" fill="#F4F4F4"></path><path d="M62.2944 5.85254V23.5891H59.6641V5.85254H62.2944Z" fill="#F4F4F4"></path><path d="M72.5445 19.8995L74.6377 21.2747C73.9621 22.2598 72.3341 23.9571 69.521 23.9571C66.0322 23.9571 63.4268 21.2993 63.4268 17.9048C63.4268 14.3056 66.0544 11.8525 69.2191 11.8525C72.4061 11.8525 73.9649 14.352 74.4744 15.7027L74.754 16.3904L66.5445 19.7412C67.173 20.9555 68.1504 21.5749 69.521 21.5749C70.8943 21.5749 71.8468 20.9091 72.5445 19.8995ZM66.1014 17.722L71.5893 15.4763C71.2875 14.7204 70.3793 14.1938 69.3105 14.1938C67.9399 14.1938 66.0322 15.3862 66.1014 17.722Z" fill="#F4F4F4"></path><path d="M9.76674 16.3334V13.7657H18.5467C18.6325 14.2132 18.6768 14.7426 18.6768 15.3156C18.6768 17.2421 18.1425 19.6242 16.4202 21.3215C14.7451 23.0406 12.6048 23.9574 9.76951 23.9574C4.51427 23.9574 0.0952148 19.7388 0.0952148 14.5598C0.0952148 9.38068 4.51427 5.16211 9.76951 5.16211C12.6768 5.16211 14.7479 6.28633 16.3039 7.75165L14.4654 9.56351C13.3496 8.53206 11.8378 7.72982 9.76674 7.72982C5.92914 7.72982 2.92773 10.7778 2.92773 14.5598C2.92773 18.3417 5.92914 21.3897 9.76674 21.3897C12.2559 21.3897 13.6736 20.4046 14.5817 19.5096C15.3182 18.7838 15.8028 17.7469 15.9938 16.3307L9.76674 16.3334Z" fill="#F4F4F4"></path><path d="M156.434 24.238C157.706 24.238 158.607 24.0006 159.278 23.4895V21.171C158.589 21.6639 157.759 21.9742 156.593 21.9742C154.633 21.9742 153.82 20.4042 153.82 17.9214C153.82 15.3109 154.809 13.9782 156.611 13.9782C157.671 13.9782 158.713 14.3616 159.26 14.7267V12.3169C158.678 11.9883 157.671 11.751 156.293 11.751C152.778 11.751 150.958 14.3616 150.958 18.0127C150.976 22.0107 152.76 24.238 156.434 24.238ZM139.247 23.1791V20.8606C138.399 21.4631 136.951 21.9925 135.626 21.9925C133.613 21.9925 132.853 21.0067 132.729 18.9985H139.371V17.5016C139.371 13.321 137.587 11.751 134.849 11.751C131.493 11.751 129.903 14.3981 129.903 18.031C129.903 22.2116 131.899 24.238 135.397 24.238C137.145 24.238 138.435 23.745 139.247 23.1791ZM114.041 11.97V16.7166H110.367V11.97H107.611V24.0006H110.367V18.9803H114.041V24.0006H116.797V11.97H114.041ZM129.214 21.7369H127.995V11.97H119.976V12.9924C119.976 15.9316 119.799 19.7288 118.828 21.7369H117.945V26.739H120.488V24.0006H126.653V26.739H129.197V21.7369H129.214ZM148.026 24.0006H151.153L146.737 17.5198L150.623 11.97H147.85L143.964 17.5198V11.97H141.208V24.0006H143.964V18.0857L148.026 24.0006ZM134.778 13.9782C136.138 13.9782 136.562 15.1466 136.562 16.6618V16.8991H132.729C132.8 14.9823 133.471 13.9782 134.778 13.9782ZM125.24 21.7369H121.354C122.113 19.9296 122.325 16.6435 122.325 14.5624V14.1973H125.24V21.7369Z" fill="white"></path><path d="M105.315 24.0005H102.507V9.63316H101.252C98.9561 9.63316 97.7549 10.8198 97.7549 12.5906C97.7549 14.5987 98.5851 15.5298 100.299 16.7164L101.712 17.7022L97.6489 24.0005H94.6284L98.2848 18.3777C96.1828 16.826 94.9994 15.3107 94.9994 12.7549C94.9994 9.56014 97.1544 7.3877 101.235 7.3877H105.297L105.315 24.0005Z" fill="white"></path></svg> 